<svg width="30" height="30" viewBox="0 0 30 30" fill="none" xmlns="http://www.w3.org/2000/svg">
<path fill-rule="evenodd" clip-rule="evenodd" d="M15.3913 4.25C10.895 4.25 7.25 7.89499 7.25 12.3913C7.25 13.5693 7.7011 14.7139 8.49301 15.8924C9.29133 17.0804 10.3763 18.2172 11.5414 19.3821C11.7067 19.5473 11.8742 19.7138 12.0429 19.8813C13.0264 20.8582 14.0453 21.8702 14.8407 22.8776C15.0219 23.1071 15.1981 23.3442 15.3645 23.589C15.5306 23.3505 15.7063 23.1196 15.8867 22.8964C16.6737 21.9225 17.6795 20.9447 18.6524 19.9988C18.8408 19.8156 19.0279 19.6337 19.212 19.4532C20.3844 18.3036 21.4755 17.1753 22.2779 15.9818C23.0722 14.8004 23.5326 13.6283 23.5326 12.3913C23.5326 7.89499 19.8876 4.25 15.3913 4.25ZM4.75 12.3913C4.75 6.51427 9.51427 1.75 15.3913 1.75C21.2683 1.75 26.0326 6.51427 26.0326 12.3913C26.0326 14.2848 25.3192 15.9389 24.3526 17.3766C23.3942 18.8022 22.1376 20.0859 20.9622 21.2383C20.7592 21.4374 20.5594 21.6318 20.3636 21.8224C19.3898 22.7701 18.515 23.6215 17.8311 24.4678C17.0056 25.4892 16.6414 26.2904 16.6413 26.9796C16.6412 27.6699 16.0816 28.2295 15.3913 28.2295H15.3151C14.6248 28.2295 14.0651 27.6699 14.0651 26.9795C14.0651 26.2832 13.6991 25.466 12.8786 24.4268C12.1849 23.5483 11.2916 22.6601 10.3011 21.6753C10.1281 21.5033 9.95213 21.3284 9.77374 21.15C8.61001 19.9864 7.36623 18.6979 6.41797 17.2867C5.46329 15.866 4.75 14.2375 4.75 12.3913ZM15.3917 10.2502C14.4252 10.2502 13.6417 11.0337 13.6417 12.0002C13.6417 12.9667 14.4252 13.7502 15.3917 13.7502C16.3582 13.7502 17.1417 12.9667 17.1417 12.0002C17.1417 11.0337 16.3582 10.2502 15.3917 10.2502ZM11.1417 12.0002C11.1417 9.65298 13.0445 7.75019 15.3917 7.75019C17.7389 7.75019 19.6417 9.65298 19.6417 12.0002C19.6417 14.3474 17.7389 16.2502 15.3917 16.2502C13.0445 16.2502 11.1417 14.3474 11.1417 12.0002Z" fill="white"/>
</svg>
