<svg width="144" height="144" viewBox="0 0 144 144" fill="none" xmlns="http://www.w3.org/2000/svg">
<path fill-rule="evenodd" clip-rule="evenodd" d="M71.75 122.5C68.9886 122.5 66.75 120.261 66.75 117.5V26C66.75 23.2386 68.9886 21 71.75 21V21C74.5114 21 76.75 23.2386 76.75 26V117.5C76.75 120.261 74.5114 122.5 71.75 122.5V122.5Z" fill="#FD993C"/>
<path fill-rule="evenodd" clip-rule="evenodd" d="M21 71.75C21 68.9886 23.2386 66.75 26 66.75L117.5 66.75C120.261 66.75 122.5 68.9886 122.5 71.75V71.75C122.5 74.5114 120.261 76.75 117.5 76.75L26 76.75C23.2386 76.75 21 74.5114 21 71.75V71.75Z" fill="#FD993C"/>
</svg>
