<svg width="24" height="24" viewBox="0 0 24 24" fill="none" xmlns="http://www.w3.org/2000/svg">
<path d="M2.3999 5.3998H21.5999M9.5999 17.3998V10.1998M14.3999 17.3998V10.1998M16.7999 22.1998H7.1999C5.87442 22.1998 4.7999 21.1253 4.7999 19.7998V6.5998C4.7999 5.93706 5.33716 5.3998 5.9999 5.3998H17.9999C18.6626 5.3998 19.1999 5.93706 19.1999 6.5998V19.7998C19.1999 21.1253 18.1254 22.1998 16.7999 22.1998ZM9.5999 5.3998H14.3999C15.0626 5.3998 15.5999 4.86255 15.5999 4.1998V2.9998C15.5999 2.33706 15.0626 1.7998 14.3999 1.7998H9.5999C8.93716 1.7998 8.3999 2.33706 8.3999 2.9998V4.1998C8.3999 4.86255 8.93716 5.3998 9.5999 5.3998Z" stroke="black" stroke-width="2" stroke-linecap="round" stroke-linejoin="round"/>
</svg>
