<svg width="22" height="23" viewBox="0 0 22 23" fill="none" xmlns="http://www.w3.org/2000/svg">
<path d="M20.6 17.3198V20.9198C20.6 21.2198 20.4923 21.4748 20.2769 21.6848C20.0615 21.8948 19.8 21.9998 19.4923 21.9998H2.50769C2.19999 21.9998 1.93846 21.8948 1.72307 21.6848C1.50769 21.4748 1.39999 21.2198 1.39999 20.9198V17.3198C1.39999 17.0198 1.50769 16.7648 1.72307 16.5548C1.93846 16.3448 2.19999 16.2398 2.50769 16.2398H6.61045C7.10698 16.2398 7.52942 16.5708 7.8642 16.9374C7.97658 17.0605 8.10454 17.173 8.24807 17.2748C8.62884 17.5448 9.05384 17.6798 9.52307 17.6798H12.4769C12.9461 17.6798 13.3711 17.5448 13.7519 17.2748C13.8955 17.173 14.0234 17.0605 14.1358 16.9374C14.4706 16.5708 14.893 16.2398 15.3895 16.2398H19.4923C19.8 16.2398 20.0615 16.3448 20.2769 16.5548C20.4923 16.7648 20.6 17.0198 20.6 17.3198ZM16.6996 7.78976C16.5688 8.08976 16.3419 8.23976 16.0188 8.23976H13.065V13.2798C13.065 13.4748 12.9919 13.6435 12.8458 13.786C12.6996 13.9285 12.5265 13.9998 12.3265 13.9998H9.37268C9.17268 13.9998 8.9996 13.9285 8.85345 13.786C8.7073 13.6435 8.63422 13.4748 8.63422 13.2798V8.23976H5.68037C5.3573 8.23976 5.13037 8.08976 4.9996 7.78976C4.86883 7.49726 4.92268 7.2385 5.16114 7.0135L10.3304 1.97351C10.4688 1.83101 10.6419 1.75976 10.8496 1.75976C11.0573 1.75976 11.2304 1.83101 11.3688 1.97351L16.5381 7.0135C16.7765 7.2385 16.8304 7.49726 16.6996 7.78976Z" stroke="black" stroke-width="1" stroke-linejoin="round"/>
</svg>
