<svg width="334" height="42" viewBox="0 0 334 42" fill="none" xmlns="http://www.w3.org/2000/svg">
<rect width="334" height="42" fill="white"/>
<path d="M12.464 30V17.688H14.276C14.66 17.688 14.912 17.868 15.032 18.228L15.224 19.14C15.44 18.9 15.664 18.68 15.896 18.48C16.136 18.28 16.388 18.108 16.652 17.964C16.924 17.82 17.212 17.708 17.516 17.628C17.828 17.54 18.168 17.496 18.536 17.496C19.312 17.496 19.948 17.708 20.444 18.132C20.948 18.548 21.324 19.104 21.572 19.8C21.764 19.392 22.004 19.044 22.292 18.756C22.58 18.46 22.896 18.22 23.24 18.036C23.584 17.852 23.948 17.716 24.332 17.628C24.724 17.54 25.116 17.496 25.508 17.496C26.188 17.496 26.792 17.6 27.32 17.808C27.848 18.016 28.292 18.32 28.652 18.72C29.012 19.12 29.284 19.608 29.468 20.184C29.66 20.76 29.756 21.42 29.756 22.164V30H26.792V22.164C26.792 21.38 26.62 20.792 26.276 20.4C25.932 20 25.428 19.8 24.764 19.8C24.46 19.8 24.176 19.852 23.912 19.956C23.656 20.06 23.428 20.212 23.228 20.412C23.036 20.604 22.884 20.848 22.772 21.144C22.66 21.44 22.604 21.78 22.604 22.164V30H19.628V22.164C19.628 21.34 19.46 20.74 19.124 20.364C18.796 19.988 18.312 19.8 17.672 19.8C17.24 19.8 16.836 19.908 16.46 20.124C16.092 20.332 15.748 20.62 15.428 20.988V30H12.464ZM39.0774 24.744C38.2214 24.784 37.5014 24.86 36.9174 24.972C36.3334 25.076 35.8654 25.212 35.5134 25.38C35.1614 25.548 34.9094 25.744 34.7574 25.968C34.6054 26.192 34.5294 26.436 34.5294 26.7C34.5294 27.22 34.6814 27.592 34.9854 27.816C35.2974 28.04 35.7014 28.152 36.1974 28.152C36.8054 28.152 37.3294 28.044 37.7694 27.828C38.2174 27.604 38.6534 27.268 39.0774 26.82V24.744ZM32.2854 19.404C33.7014 18.108 35.4054 17.46 37.3974 17.46C38.1174 17.46 38.7614 17.58 39.3294 17.82C39.8974 18.052 40.3774 18.38 40.7694 18.804C41.1614 19.22 41.4574 19.72 41.6574 20.304C41.8654 20.888 41.9694 21.528 41.9694 22.224V30H40.6254C40.3454 30 40.1294 29.96 39.9774 29.88C39.8254 29.792 39.7054 29.62 39.6174 29.364L39.3534 28.476C39.0414 28.756 38.7374 29.004 38.4414 29.22C38.1454 29.428 37.8374 29.604 37.5174 29.748C37.1974 29.892 36.8534 30 36.4854 30.072C36.1254 30.152 35.7254 30.192 35.2854 30.192C34.7654 30.192 34.2854 30.124 33.8454 29.988C33.4054 29.844 33.0254 29.632 32.7054 29.352C32.3854 29.072 32.1374 28.724 31.9614 28.308C31.7854 27.892 31.6974 27.408 31.6974 26.856C31.6974 26.544 31.7494 26.236 31.8534 25.932C31.9574 25.62 32.1254 25.324 32.3574 25.044C32.5974 24.764 32.9054 24.5 33.2814 24.252C33.6574 24.004 34.1174 23.788 34.6614 23.604C35.2134 23.42 35.8534 23.272 36.5814 23.16C37.3094 23.04 38.1414 22.968 39.0774 22.944V22.224C39.0774 21.4 38.9014 20.792 38.5494 20.4C38.1974 20 37.6894 19.8 37.0254 19.8C36.5454 19.8 36.1454 19.856 35.8254 19.968C35.5134 20.08 35.2374 20.208 34.9974 20.352C34.7574 20.488 34.5374 20.612 34.3374 20.724C34.1454 20.836 33.9294 20.892 33.6894 20.892C33.4814 20.892 33.3054 20.84 33.1614 20.736C33.0174 20.624 32.9014 20.496 32.8134 20.352L32.2854 19.404ZM47.8329 17.688V30H44.8569V17.688H47.8329ZM48.2409 14.1C48.2409 14.356 48.1889 14.596 48.0849 14.82C47.9809 15.044 47.8409 15.24 47.6649 15.408C47.4969 15.576 47.2969 15.712 47.0649 15.816C46.8329 15.912 46.5849 15.96 46.3209 15.96C46.0649 15.96 45.8209 15.912 45.5889 15.816C45.3649 15.712 45.1689 15.576 45.0009 15.408C44.8329 15.24 44.6969 15.044 44.5929 14.82C44.4969 14.596 44.4489 14.356 44.4489 14.1C44.4489 13.836 44.4969 13.588 44.5929 13.356C44.6969 13.124 44.8329 12.924 45.0009 12.756C45.1689 12.588 45.3649 12.456 45.5889 12.36C45.8209 12.256 46.0649 12.204 46.3209 12.204C46.5849 12.204 46.8329 12.256 47.0649 12.36C47.2969 12.456 47.4969 12.588 47.6649 12.756C47.8409 12.924 47.9809 13.124 48.0849 13.356C48.1889 13.588 48.2409 13.836 48.2409 14.1ZM53.8546 12.168V30H50.8906V12.168H53.8546ZM67.6918 20.376C67.4358 20.328 67.1718 20.304 66.8998 20.304C66.4038 20.304 65.9398 20.412 65.5078 20.628C65.0758 20.844 64.6998 21.136 64.3798 21.504C64.0678 21.872 63.8198 22.296 63.6358 22.776C63.4518 23.248 63.3598 23.74 63.3598 24.252C63.3598 24.764 63.4678 25.164 63.6838 25.452C63.9078 25.732 64.2318 25.872 64.6558 25.872C64.8638 25.872 65.0718 25.84 65.2798 25.776C65.4958 25.712 65.6998 25.6 65.8918 25.44C66.0838 25.272 66.2598 25.052 66.4198 24.78C66.5798 24.508 66.7118 24.168 66.8158 23.76L67.6918 20.376ZM69.0958 23.448C68.9678 23.96 68.9037 24.38 68.9037 24.708C68.9118 25.028 68.9638 25.284 69.0598 25.476C69.1558 25.66 69.2918 25.788 69.4678 25.86C69.6438 25.932 69.8438 25.968 70.0678 25.968C70.4038 25.968 70.7198 25.864 71.0158 25.656C71.3198 25.44 71.5838 25.14 71.8078 24.756C72.0318 24.372 72.2078 23.916 72.3358 23.388C72.4718 22.86 72.5398 22.284 72.5398 21.66C72.5398 20.62 72.3758 19.704 72.0478 18.912C71.7278 18.12 71.2758 17.46 70.6918 16.932C70.1078 16.396 69.4118 15.996 68.6038 15.732C67.8038 15.46 66.9238 15.324 65.9638 15.324C64.9078 15.324 63.9318 15.524 63.0358 15.924C62.1398 16.316 61.3598 16.856 60.6958 17.544C60.0398 18.232 59.5238 19.044 59.1478 19.98C58.7798 20.916 58.5958 21.924 58.5958 23.004C58.5958 24.316 58.7998 25.472 59.2078 26.472C59.6158 27.464 60.1758 28.296 60.8878 28.968C61.5998 29.632 62.4358 30.132 63.3958 30.468C64.3638 30.804 65.4078 30.972 66.5278 30.972C67.1438 30.972 67.7198 30.936 68.2558 30.864C68.7918 30.8 69.2838 30.708 69.7318 30.588C70.1798 30.476 70.5878 30.344 70.9558 30.192C71.3238 30.048 71.6518 29.892 71.9398 29.724C72.1478 29.604 72.3318 29.568 72.4918 29.616C72.6518 29.664 72.7678 29.784 72.8398 29.976L73.2478 31.044C72.4158 31.588 71.4438 32.032 70.3318 32.376C69.2198 32.72 67.9518 32.892 66.5278 32.892C65.0798 32.892 63.7398 32.664 62.5078 32.208C61.2758 31.752 60.2078 31.096 59.3038 30.24C58.4078 29.392 57.7038 28.356 57.1918 27.132C56.6878 25.908 56.4358 24.532 56.4358 23.004C56.4358 22.148 56.5438 21.316 56.7598 20.508C56.9838 19.7 57.2998 18.944 57.7078 18.24C58.1158 17.528 58.6078 16.876 59.1838 16.284C59.7598 15.692 60.3998 15.184 61.1038 14.76C61.8078 14.336 62.5678 14.008 63.3838 13.776C64.2078 13.536 65.0678 13.416 65.9638 13.416C67.0998 13.416 68.1878 13.608 69.2278 13.992C70.2758 14.368 71.1998 14.912 71.9998 15.624C72.8078 16.328 73.4518 17.192 73.9318 18.216C74.4118 19.232 74.6518 20.38 74.6518 21.66C74.6518 22.516 74.5238 23.32 74.2678 24.072C74.0198 24.816 73.6678 25.464 73.2118 26.016C72.7638 26.568 72.2318 27.004 71.6158 27.324C71.0078 27.636 70.3438 27.792 69.6238 27.792C69.0718 27.792 68.5838 27.664 68.1598 27.408C67.7358 27.152 67.4438 26.74 67.2838 26.172C66.8118 26.748 66.3118 27.16 65.7838 27.408C65.2558 27.656 64.6838 27.78 64.0678 27.78C63.5638 27.78 63.1238 27.692 62.7478 27.516C62.3798 27.34 62.0678 27.1 61.8118 26.796C61.5638 26.484 61.3758 26.12 61.2478 25.704C61.1278 25.28 61.0678 24.82 61.0678 24.324C61.0678 23.868 61.1238 23.408 61.2358 22.944C61.3558 22.472 61.5318 22.02 61.7638 21.588C61.9958 21.148 62.2838 20.74 62.6278 20.364C62.9798 19.98 63.3878 19.648 63.8518 19.368C64.3238 19.08 64.8518 18.856 65.4358 18.696C66.0278 18.528 66.6758 18.444 67.3798 18.444C68.0038 18.444 68.5358 18.492 68.9758 18.588C69.4158 18.684 69.8398 18.82 70.2478 18.996L69.0958 23.448ZM81.1618 30.192C80.0898 30.192 79.2658 29.892 78.6898 29.292C78.1218 28.684 77.8378 27.848 77.8378 26.784V19.908H76.5778C76.4178 19.908 76.2818 19.856 76.1698 19.752C76.0578 19.648 76.0018 19.492 76.0018 19.284V18.108L77.9818 17.784L78.6058 14.424C78.6458 14.264 78.7218 14.14 78.8338 14.052C78.9458 13.964 79.0898 13.92 79.2658 13.92H80.8018V17.796H85.9258L86.5618 14.424C86.6018 14.264 86.6738 14.14 86.7778 14.052C86.8898 13.964 87.0378 13.92 87.2218 13.92H88.7458V17.796H92.0338V19.908H88.7458V26.58C88.7458 26.964 88.8418 27.264 89.0338 27.48C89.2258 27.696 89.4858 27.804 89.8138 27.804C89.9898 27.804 90.1418 27.784 90.2698 27.744C90.3978 27.696 90.5058 27.648 90.5938 27.6C90.6898 27.552 90.7738 27.508 90.8458 27.468C90.9178 27.42 90.9898 27.396 91.0618 27.396C91.1498 27.396 91.2218 27.42 91.2778 27.468C91.3338 27.508 91.3938 27.572 91.4578 27.66L92.3458 29.1C91.9138 29.46 91.4178 29.732 90.8578 29.916C90.2978 30.1 89.7178 30.192 89.1178 30.192C88.0458 30.192 87.2218 29.892 86.6458 29.292C86.0698 28.684 85.7818 27.848 85.7818 26.784V19.908H80.8018V26.58C80.8018 26.964 80.8938 27.264 81.0778 27.48C81.2698 27.696 81.5298 27.804 81.8578 27.804C82.0418 27.804 82.1938 27.784 82.3138 27.744C82.4418 27.696 82.5498 27.648 82.6378 27.6C82.7338 27.552 82.8178 27.508 82.8898 27.468C82.9618 27.42 83.0338 27.396 83.1058 27.396C83.1938 27.396 83.2658 27.42 83.3218 27.468C83.3778 27.508 83.4378 27.572 83.5018 27.66L84.3898 29.1C83.9578 29.46 83.4618 29.732 82.9018 29.916C82.3418 30.1 81.7618 30.192 81.1618 30.192ZM102.659 20.292C102.571 20.404 102.483 20.492 102.395 20.556C102.315 20.62 102.195 20.652 102.035 20.652C101.883 20.652 101.735 20.608 101.591 20.52C101.447 20.424 101.275 20.32 101.075 20.208C100.875 20.088 100.635 19.984 100.355 19.896C100.083 19.8 99.743 19.752 99.335 19.752C98.815 19.752 98.359 19.848 97.967 20.04C97.575 20.224 97.247 20.492 96.983 20.844C96.727 21.196 96.535 21.624 96.407 22.128C96.279 22.624 96.215 23.188 96.215 23.82C96.215 24.476 96.283 25.06 96.419 25.572C96.563 26.084 96.767 26.516 97.031 26.868C97.295 27.212 97.615 27.476 97.991 27.66C98.367 27.836 98.791 27.924 99.263 27.924C99.735 27.924 100.115 27.868 100.403 27.756C100.699 27.636 100.947 27.508 101.147 27.372C101.347 27.228 101.519 27.1 101.663 26.988C101.815 26.868 101.983 26.808 102.167 26.808C102.407 26.808 102.587 26.9 102.707 27.084L103.559 28.164C103.231 28.548 102.875 28.872 102.491 29.136C102.107 29.392 101.707 29.6 101.291 29.76C100.883 29.912 100.459 30.02 100.019 30.084C99.587 30.148 99.155 30.18 98.723 30.18C97.963 30.18 97.247 30.04 96.575 29.76C95.903 29.472 95.315 29.056 94.811 28.512C94.307 27.968 93.907 27.304 93.611 26.52C93.323 25.728 93.179 24.828 93.179 23.82C93.179 22.916 93.307 22.08 93.563 21.312C93.827 20.536 94.211 19.868 94.715 19.308C95.219 18.74 95.843 18.296 96.587 17.976C97.331 17.656 98.187 17.496 99.155 17.496C100.075 17.496 100.879 17.644 101.567 17.94C102.263 18.236 102.887 18.66 103.439 19.212L102.659 20.292ZM105.227 21.516H111.443V23.988H105.227V21.516ZM117.241 12.168V22.38H117.793C117.993 22.38 118.149 22.356 118.261 22.308C118.381 22.252 118.501 22.144 118.621 21.984L121.681 18.204C121.809 18.036 121.949 17.908 122.101 17.82C122.261 17.732 122.465 17.688 122.713 17.688H125.424L121.597 22.26C121.325 22.62 121.029 22.896 120.709 23.088C120.877 23.208 121.025 23.348 121.153 23.508C121.289 23.668 121.417 23.84 121.537 24.024L125.641 30H122.965C122.733 30 122.533 29.964 122.365 29.892C122.197 29.812 122.057 29.672 121.945 29.472L118.801 24.804C118.689 24.62 118.573 24.5 118.453 24.444C118.333 24.388 118.153 24.36 117.913 24.36H117.241V30H114.277V12.168H117.241ZM130.097 12.168V30H127.133V12.168H130.097ZM136.122 17.688V30H133.146V17.688H136.122ZM136.53 14.1C136.53 14.356 136.478 14.596 136.374 14.82C136.27 15.044 136.13 15.24 135.954 15.408C135.786 15.576 135.586 15.712 135.354 15.816C135.122 15.912 134.874 15.96 134.61 15.96C134.354 15.96 134.11 15.912 133.878 15.816C133.654 15.712 133.458 15.576 133.29 15.408C133.122 15.24 132.986 15.044 132.882 14.82C132.786 14.596 132.738 14.356 132.738 14.1C132.738 13.836 132.786 13.588 132.882 13.356C132.986 13.124 133.122 12.924 133.29 12.756C133.458 12.588 133.654 12.456 133.878 12.36C134.11 12.256 134.354 12.204 134.61 12.204C134.874 12.204 135.122 12.256 135.354 12.36C135.586 12.456 135.786 12.588 135.954 12.756C136.13 12.924 136.27 13.124 136.374 13.356C136.478 13.588 136.53 13.836 136.53 14.1ZM141.916 19.2C142.164 18.952 142.424 18.724 142.696 18.516C142.976 18.3 143.268 18.12 143.572 17.976C143.884 17.824 144.216 17.708 144.568 17.628C144.92 17.54 145.304 17.496 145.72 17.496C146.392 17.496 146.988 17.612 147.508 17.844C148.028 18.068 148.46 18.388 148.804 18.804C149.156 19.212 149.42 19.704 149.596 20.28C149.78 20.848 149.872 21.476 149.872 22.164V30H146.908V22.164C146.908 21.412 146.736 20.832 146.392 20.424C146.048 20.008 145.524 19.8 144.82 19.8C144.308 19.8 143.828 19.916 143.38 20.148C142.932 20.38 142.508 20.696 142.108 21.096V30H139.144V17.688H140.956C141.34 17.688 141.592 17.868 141.712 18.228L141.916 19.2ZM157.191 23.544C157.559 23.544 157.879 23.496 158.151 23.4C158.423 23.296 158.647 23.156 158.823 22.98C159.007 22.804 159.143 22.592 159.231 22.344C159.327 22.096 159.375 21.824 159.375 21.528C159.375 20.92 159.191 20.44 158.823 20.088C158.463 19.728 157.919 19.548 157.191 19.548C156.463 19.548 155.915 19.728 155.547 20.088C155.187 20.44 155.007 20.92 155.007 21.528C155.007 21.816 155.051 22.084 155.139 22.332C155.235 22.58 155.371 22.796 155.547 22.98C155.731 23.156 155.959 23.296 156.231 23.4C156.511 23.496 156.831 23.544 157.191 23.544ZM160.539 30.552C160.539 30.312 160.467 30.116 160.323 29.964C160.179 29.812 159.983 29.696 159.735 29.616C159.487 29.528 159.195 29.464 158.859 29.424C158.531 29.384 158.179 29.356 157.803 29.34C157.435 29.316 157.051 29.296 156.651 29.28C156.259 29.264 155.875 29.232 155.499 29.184C155.171 29.368 154.903 29.584 154.695 29.832C154.495 30.08 154.395 30.368 154.395 30.696C154.395 30.912 154.447 31.112 154.551 31.296C154.663 31.488 154.835 31.652 155.067 31.788C155.307 31.924 155.615 32.028 155.991 32.1C156.367 32.18 156.827 32.22 157.371 32.22C157.923 32.22 158.399 32.176 158.799 32.088C159.199 32.008 159.527 31.892 159.783 31.74C160.047 31.596 160.239 31.42 160.359 31.212C160.479 31.012 160.539 30.792 160.539 30.552ZM163.491 18.108V19.212C163.491 19.564 163.279 19.78 162.855 19.86L161.751 20.064C161.919 20.488 162.003 20.952 162.003 21.456C162.003 22.064 161.879 22.616 161.631 23.112C161.391 23.6 161.055 24.016 160.623 24.36C160.191 24.704 159.679 24.972 159.087 25.164C158.503 25.348 157.871 25.44 157.191 25.44C156.951 25.44 156.719 25.428 156.495 25.404C156.271 25.38 156.051 25.348 155.835 25.308C155.451 25.54 155.259 25.8 155.259 26.088C155.259 26.336 155.371 26.52 155.595 26.64C155.827 26.752 156.131 26.832 156.507 26.88C156.883 26.928 157.311 26.96 157.791 26.976C158.271 26.984 158.763 27.008 159.267 27.048C159.771 27.088 160.263 27.16 160.743 27.264C161.223 27.36 161.651 27.516 162.027 27.732C162.403 27.948 162.703 28.244 162.927 28.62C163.159 28.988 163.275 29.464 163.275 30.048C163.275 30.592 163.139 31.12 162.867 31.632C162.603 32.144 162.215 32.6 161.703 33C161.199 33.4 160.575 33.72 159.831 33.96C159.095 34.208 158.255 34.332 157.311 34.332C156.383 34.332 155.575 34.24 154.887 34.056C154.199 33.88 153.627 33.64 153.171 33.336C152.715 33.04 152.375 32.696 152.151 32.304C151.927 31.912 151.815 31.504 151.815 31.08C151.815 30.504 151.987 30.024 152.331 29.64C152.683 29.248 153.163 28.936 153.771 28.704C153.443 28.536 153.183 28.312 152.991 28.032C152.799 27.752 152.703 27.384 152.703 26.928C152.703 26.744 152.735 26.556 152.799 26.364C152.871 26.164 152.971 25.968 153.099 25.776C153.235 25.584 153.403 25.404 153.603 25.236C153.803 25.06 154.039 24.904 154.311 24.768C153.687 24.432 153.195 23.984 152.835 23.424C152.483 22.864 152.307 22.208 152.307 21.456C152.307 20.848 152.427 20.3 152.667 19.812C152.915 19.316 153.255 18.896 153.687 18.552C154.127 18.2 154.643 17.932 155.235 17.748C155.835 17.564 156.487 17.472 157.191 17.472C157.719 17.472 158.215 17.528 158.679 17.64C159.143 17.744 159.567 17.9 159.951 18.108H163.491ZM173.091 22.428C173.091 22.044 173.035 21.684 172.923 21.348C172.819 21.004 172.659 20.704 172.443 20.448C172.227 20.192 171.951 19.992 171.615 19.848C171.287 19.696 170.903 19.62 170.463 19.62C169.607 19.62 168.931 19.864 168.435 20.352C167.947 20.84 167.635 21.532 167.499 22.428H173.091ZM167.439 24.216C167.487 24.848 167.599 25.396 167.775 25.86C167.951 26.316 168.183 26.696 168.471 27C168.759 27.296 169.099 27.52 169.491 27.672C169.891 27.816 170.331 27.888 170.811 27.888C171.291 27.888 171.703 27.832 172.047 27.72C172.399 27.608 172.703 27.484 172.959 27.348C173.223 27.212 173.451 27.088 173.643 26.976C173.843 26.864 174.035 26.808 174.219 26.808C174.467 26.808 174.651 26.9 174.771 27.084L175.623 28.164C175.295 28.548 174.927 28.872 174.519 29.136C174.111 29.392 173.683 29.6 173.235 29.76C172.795 29.912 172.343 30.02 171.879 30.084C171.423 30.148 170.979 30.18 170.547 30.18C169.691 30.18 168.895 30.04 168.159 29.76C167.423 29.472 166.783 29.052 166.239 28.5C165.695 27.94 165.267 27.252 164.955 26.436C164.643 25.612 164.487 24.66 164.487 23.58C164.487 22.74 164.623 21.952 164.895 21.216C165.167 20.472 165.555 19.828 166.059 19.284C166.571 18.732 167.191 18.296 167.919 17.976C168.655 17.656 169.483 17.496 170.403 17.496C171.179 17.496 171.895 17.62 172.551 17.868C173.207 18.116 173.771 18.48 174.243 18.96C174.715 19.432 175.083 20.016 175.347 20.712C175.619 21.4 175.755 22.188 175.755 23.076C175.755 23.524 175.707 23.828 175.611 23.988C175.515 24.14 175.331 24.216 175.059 24.216H167.439ZM180.752 19.2C181 18.952 181.26 18.724 181.532 18.516C181.812 18.3 182.104 18.12 182.408 17.976C182.72 17.824 183.052 17.708 183.404 17.628C183.756 17.54 184.14 17.496 184.556 17.496C185.228 17.496 185.824 17.612 186.344 17.844C186.864 18.068 187.296 18.388 187.64 18.804C187.992 19.212 188.256 19.704 188.432 20.28C188.616 20.848 188.708 21.476 188.708 22.164V30H185.744V22.164C185.744 21.412 185.572 20.832 185.228 20.424C184.884 20.008 184.36 19.8 183.656 19.8C183.144 19.8 182.664 19.916 182.216 20.148C181.768 20.38 181.344 20.696 180.944 21.096V30H177.98V17.688H179.792C180.176 17.688 180.428 17.868 180.548 18.228L180.752 19.2ZM191.527 30V17.688H193.339C193.723 17.688 193.975 17.868 194.095 18.228L194.287 19.14C194.503 18.9 194.727 18.68 194.959 18.48C195.199 18.28 195.451 18.108 195.715 17.964C195.987 17.82 196.275 17.708 196.579 17.628C196.891 17.54 197.231 17.496 197.599 17.496C198.375 17.496 199.011 17.708 199.507 18.132C200.011 18.548 200.387 19.104 200.635 19.8C200.827 19.392 201.067 19.044 201.355 18.756C201.643 18.46 201.959 18.22 202.303 18.036C202.647 17.852 203.011 17.716 203.395 17.628C203.787 17.54 204.179 17.496 204.571 17.496C205.251 17.496 205.855 17.6 206.383 17.808C206.911 18.016 207.355 18.32 207.715 18.72C208.075 19.12 208.347 19.608 208.531 20.184C208.723 20.76 208.819 21.42 208.819 22.164V30H205.855V22.164C205.855 21.38 205.683 20.792 205.339 20.4C204.995 20 204.491 19.8 203.827 19.8C203.523 19.8 203.239 19.852 202.975 19.956C202.719 20.06 202.491 20.212 202.291 20.412C202.099 20.604 201.947 20.848 201.835 21.144C201.723 21.44 201.667 21.78 201.667 22.164V30H198.691V22.164C198.691 21.34 198.523 20.74 198.187 20.364C197.859 19.988 197.375 19.8 196.735 19.8C196.303 19.8 195.899 19.908 195.523 20.124C195.155 20.332 194.811 20.62 194.491 20.988V30H191.527ZM222.244 17.688V30H220.432C220.04 30 219.792 29.82 219.688 29.46L219.484 28.476C218.98 28.988 218.424 29.404 217.816 29.724C217.208 30.036 216.492 30.192 215.668 30.192C214.996 30.192 214.4 30.08 213.88 29.856C213.368 29.624 212.936 29.3 212.584 28.884C212.232 28.468 211.964 27.976 211.78 27.408C211.604 26.832 211.516 26.2 211.516 25.512V17.688H214.48V25.512C214.48 26.264 214.652 26.848 214.996 27.264C215.348 27.672 215.872 27.876 216.568 27.876C217.08 27.876 217.56 27.764 218.008 27.54C218.456 27.308 218.88 26.992 219.28 26.592V17.688H222.244ZM233.115 22.428C233.115 22.044 233.059 21.684 232.947 21.348C232.843 21.004 232.683 20.704 232.467 20.448C232.251 20.192 231.975 19.992 231.639 19.848C231.311 19.696 230.927 19.62 230.487 19.62C229.631 19.62 228.955 19.864 228.459 20.352C227.971 20.84 227.659 21.532 227.523 22.428H233.115ZM227.463 24.216C227.511 24.848 227.623 25.396 227.799 25.86C227.975 26.316 228.207 26.696 228.495 27C228.783 27.296 229.123 27.52 229.515 27.672C229.915 27.816 230.355 27.888 230.835 27.888C231.315 27.888 231.727 27.832 232.071 27.72C232.423 27.608 232.727 27.484 232.983 27.348C233.247 27.212 233.475 27.088 233.667 26.976C233.867 26.864 234.059 26.808 234.243 26.808C234.491 26.808 234.675 26.9 234.795 27.084L235.647 28.164C235.319 28.548 234.951 28.872 234.543 29.136C234.135 29.392 233.707 29.6 233.259 29.76C232.819 29.912 232.367 30.02 231.903 30.084C231.447 30.148 231.003 30.18 230.571 30.18C229.715 30.18 228.919 30.04 228.183 29.76C227.447 29.472 226.807 29.052 226.263 28.5C225.719 27.94 225.291 27.252 224.979 26.436C224.667 25.612 224.511 24.66 224.511 23.58C224.511 22.74 224.647 21.952 224.919 21.216C225.191 20.472 225.579 19.828 226.083 19.284C226.595 18.732 227.215 18.296 227.943 17.976C228.679 17.656 229.507 17.496 230.427 17.496C231.203 17.496 231.919 17.62 232.575 17.868C233.231 18.116 233.795 18.48 234.267 18.96C234.739 19.432 235.107 20.016 235.371 20.712C235.643 21.4 235.779 22.188 235.779 23.076C235.779 23.524 235.731 23.828 235.635 23.988C235.539 24.14 235.355 24.216 235.083 24.216H227.463ZM240.775 19.2C241.023 18.952 241.283 18.724 241.555 18.516C241.835 18.3 242.127 18.12 242.431 17.976C242.743 17.824 243.075 17.708 243.427 17.628C243.779 17.54 244.163 17.496 244.579 17.496C245.251 17.496 245.847 17.612 246.367 17.844C246.887 18.068 247.319 18.388 247.663 18.804C248.015 19.212 248.279 19.704 248.455 20.28C248.639 20.848 248.731 21.476 248.731 22.164V30H245.767V22.164C245.767 21.412 245.595 20.832 245.251 20.424C244.907 20.008 244.383 19.8 243.679 19.8C243.167 19.8 242.687 19.916 242.239 20.148C241.791 20.38 241.367 20.696 240.967 21.096V30H238.003V17.688H239.815C240.199 17.688 240.451 17.868 240.571 18.228L240.775 19.2ZM259.062 20.088C258.982 20.216 258.898 20.308 258.81 20.364C258.722 20.412 258.61 20.436 258.474 20.436C258.33 20.436 258.174 20.396 258.006 20.316C257.846 20.236 257.658 20.148 257.442 20.052C257.226 19.948 256.978 19.856 256.698 19.776C256.426 19.696 256.102 19.656 255.726 19.656C255.142 19.656 254.682 19.78 254.346 20.028C254.018 20.276 253.854 20.6 253.854 21C253.854 21.264 253.938 21.488 254.106 21.672C254.282 21.848 254.51 22.004 254.79 22.14C255.078 22.276 255.402 22.4 255.762 22.512C256.122 22.616 256.486 22.732 256.854 22.86C257.23 22.988 257.598 23.136 257.958 23.304C258.318 23.464 258.638 23.672 258.918 23.928C259.206 24.176 259.434 24.476 259.602 24.828C259.778 25.18 259.866 25.604 259.866 26.1C259.866 26.692 259.758 27.24 259.542 27.744C259.334 28.24 259.022 28.672 258.606 29.04C258.19 29.4 257.674 29.684 257.058 29.892C256.45 30.092 255.746 30.192 254.946 30.192C254.522 30.192 254.106 30.152 253.698 30.072C253.298 30 252.91 29.896 252.534 29.76C252.166 29.624 251.822 29.464 251.502 29.28C251.19 29.096 250.914 28.896 250.674 28.68L251.358 27.552C251.446 27.416 251.55 27.312 251.67 27.24C251.79 27.168 251.942 27.132 252.126 27.132C252.31 27.132 252.482 27.184 252.642 27.288C252.81 27.392 253.002 27.504 253.218 27.624C253.434 27.744 253.686 27.856 253.974 27.96C254.27 28.064 254.642 28.116 255.09 28.116C255.442 28.116 255.742 28.076 255.99 27.996C256.246 27.908 256.454 27.796 256.614 27.66C256.782 27.524 256.902 27.368 256.974 27.192C257.054 27.008 257.094 26.82 257.094 26.628C257.094 26.34 257.006 26.104 256.83 25.92C256.662 25.736 256.434 25.576 256.146 25.44C255.866 25.304 255.542 25.184 255.174 25.08C254.814 24.968 254.442 24.848 254.058 24.72C253.682 24.592 253.31 24.444 252.942 24.276C252.582 24.1 252.258 23.88 251.97 23.616C251.69 23.352 251.462 23.028 251.286 22.644C251.118 22.26 251.034 21.796 251.034 21.252C251.034 20.748 251.134 20.268 251.334 19.812C251.534 19.356 251.826 18.96 252.21 18.624C252.602 18.28 253.086 18.008 253.662 17.808C254.246 17.6 254.918 17.496 255.678 17.496C256.526 17.496 257.298 17.636 257.994 17.916C258.69 18.196 259.27 18.564 259.734 19.02L259.062 20.088ZM266.201 30.192C265.129 30.192 264.305 29.892 263.729 29.292C263.161 28.684 262.877 27.848 262.877 26.784V19.908H261.617C261.457 19.908 261.321 19.856 261.209 19.752C261.097 19.648 261.041 19.492 261.041 19.284V18.108L263.021 17.784L263.645 14.424C263.685 14.264 263.761 14.14 263.873 14.052C263.985 13.964 264.129 13.92 264.305 13.92H265.841V17.796H269.129V19.908H265.841V26.58C265.841 26.964 265.933 27.264 266.117 27.48C266.309 27.696 266.569 27.804 266.897 27.804C267.081 27.804 267.233 27.784 267.353 27.744C267.481 27.696 267.589 27.648 267.677 27.6C267.773 27.552 267.857 27.508 267.929 27.468C268.001 27.42 268.073 27.396 268.145 27.396C268.233 27.396 268.305 27.42 268.361 27.468C268.417 27.508 268.477 27.572 268.541 27.66L269.429 29.1C268.997 29.46 268.501 29.732 267.941 29.916C267.381 30.1 266.801 30.192 266.201 30.192ZM278.865 22.428C278.865 22.044 278.809 21.684 278.697 21.348C278.593 21.004 278.433 20.704 278.217 20.448C278.001 20.192 277.725 19.992 277.389 19.848C277.061 19.696 276.677 19.62 276.237 19.62C275.381 19.62 274.705 19.864 274.209 20.352C273.721 20.84 273.409 21.532 273.273 22.428H278.865ZM273.213 24.216C273.261 24.848 273.373 25.396 273.549 25.86C273.725 26.316 273.957 26.696 274.245 27C274.533 27.296 274.873 27.52 275.265 27.672C275.665 27.816 276.105 27.888 276.585 27.888C277.065 27.888 277.477 27.832 277.821 27.72C278.173 27.608 278.477 27.484 278.733 27.348C278.997 27.212 279.225 27.088 279.417 26.976C279.617 26.864 279.809 26.808 279.993 26.808C280.241 26.808 280.425 26.9 280.545 27.084L281.397 28.164C281.069 28.548 280.701 28.872 280.293 29.136C279.885 29.392 279.457 29.6 279.009 29.76C278.569 29.912 278.117 30.02 277.653 30.084C277.197 30.148 276.753 30.18 276.321 30.18C275.465 30.18 274.669 30.04 273.933 29.76C273.197 29.472 272.557 29.052 272.013 28.5C271.469 27.94 271.041 27.252 270.729 26.436C270.417 25.612 270.261 24.66 270.261 23.58C270.261 22.74 270.397 21.952 270.669 21.216C270.941 20.472 271.329 19.828 271.833 19.284C272.345 18.732 272.965 18.296 273.693 17.976C274.429 17.656 275.257 17.496 276.177 17.496C276.953 17.496 277.669 17.62 278.325 17.868C278.981 18.116 279.545 18.48 280.017 18.96C280.489 19.432 280.857 20.016 281.121 20.712C281.393 21.4 281.529 22.188 281.529 23.076C281.529 23.524 281.481 23.828 281.385 23.988C281.289 24.14 281.105 24.216 280.833 24.216H273.213ZM286.549 19.824C286.933 19.088 287.389 18.512 287.917 18.096C288.445 17.672 289.069 17.46 289.789 17.46C290.357 17.46 290.813 17.584 291.157 17.832L290.965 20.052C290.925 20.196 290.865 20.3 290.785 20.364C290.713 20.42 290.613 20.448 290.485 20.448C290.365 20.448 290.185 20.428 289.945 20.388C289.713 20.348 289.485 20.328 289.261 20.328C288.933 20.328 288.641 20.376 288.385 20.472C288.129 20.568 287.897 20.708 287.689 20.892C287.489 21.068 287.309 21.284 287.149 21.54C286.997 21.796 286.853 22.088 286.717 22.416V30H283.753V17.688H285.493C285.797 17.688 286.009 17.744 286.129 17.856C286.249 17.96 286.329 18.152 286.369 18.432L286.549 19.824ZM291.337 28.368C291.337 28.12 291.381 27.884 291.469 27.66C291.565 27.436 291.693 27.244 291.853 27.084C292.013 26.924 292.205 26.796 292.429 26.7C292.653 26.604 292.893 26.556 293.149 26.556C293.405 26.556 293.641 26.604 293.857 26.7C294.081 26.796 294.273 26.924 294.433 27.084C294.601 27.244 294.733 27.436 294.829 27.66C294.925 27.884 294.973 28.12 294.973 28.368C294.973 28.624 294.925 28.864 294.829 29.088C294.733 29.304 294.601 29.492 294.433 29.652C294.273 29.812 294.081 29.936 293.857 30.024C293.641 30.12 293.405 30.168 293.149 30.168C292.893 30.168 292.653 30.12 292.429 30.024C292.205 29.936 292.013 29.812 291.853 29.652C291.693 29.492 291.565 29.304 291.469 29.088C291.381 28.864 291.337 28.624 291.337 28.368ZM305.192 20.832C304.856 20.424 304.488 20.136 304.088 19.968C303.696 19.8 303.272 19.716 302.816 19.716C302.368 19.716 301.964 19.8 301.604 19.968C301.244 20.136 300.936 20.392 300.68 20.736C300.424 21.072 300.228 21.504 300.092 22.032C299.956 22.552 299.888 23.168 299.888 23.88C299.888 24.6 299.944 25.212 300.056 25.716C300.176 26.212 300.344 26.62 300.56 26.94C300.776 27.252 301.04 27.48 301.352 27.624C301.664 27.76 302.012 27.828 302.396 27.828C303.012 27.828 303.536 27.7 303.968 27.444C304.4 27.188 304.808 26.824 305.192 26.352V20.832ZM308.156 12.168V30H306.344C305.952 30 305.704 29.82 305.6 29.46L305.348 28.272C304.852 28.84 304.28 29.3 303.632 29.652C302.992 30.004 302.244 30.18 301.388 30.18C300.716 30.18 300.1 30.04 299.54 29.76C298.98 29.48 298.496 29.076 298.088 28.548C297.688 28.012 297.376 27.352 297.152 26.568C296.936 25.784 296.828 24.888 296.828 23.88C296.828 22.968 296.952 22.12 297.2 21.336C297.448 20.552 297.804 19.872 298.268 19.296C298.732 18.72 299.288 18.272 299.936 17.952C300.584 17.624 301.312 17.46 302.12 17.46C302.808 17.46 303.396 17.568 303.884 17.784C304.372 18 304.808 18.292 305.192 18.66V12.168H308.156ZM319.013 22.428C319.013 22.044 318.957 21.684 318.845 21.348C318.741 21.004 318.581 20.704 318.365 20.448C318.149 20.192 317.873 19.992 317.537 19.848C317.209 19.696 316.825 19.62 316.385 19.62C315.529 19.62 314.853 19.864 314.357 20.352C313.869 20.84 313.557 21.532 313.421 22.428H319.013ZM313.361 24.216C313.409 24.848 313.521 25.396 313.697 25.86C313.873 26.316 314.105 26.696 314.393 27C314.681 27.296 315.021 27.52 315.413 27.672C315.813 27.816 316.253 27.888 316.733 27.888C317.213 27.888 317.625 27.832 317.969 27.72C318.321 27.608 318.625 27.484 318.881 27.348C319.145 27.212 319.373 27.088 319.565 26.976C319.765 26.864 319.957 26.808 320.141 26.808C320.389 26.808 320.573 26.9 320.693 27.084L321.545 28.164C321.217 28.548 320.849 28.872 320.441 29.136C320.033 29.392 319.605 29.6 319.157 29.76C318.717 29.912 318.265 30.02 317.801 30.084C317.345 30.148 316.901 30.18 316.469 30.18C315.613 30.18 314.817 30.04 314.081 29.76C313.345 29.472 312.705 29.052 312.161 28.5C311.617 27.94 311.189 27.252 310.877 26.436C310.565 25.612 310.409 24.66 310.409 23.58C310.409 22.74 310.545 21.952 310.817 21.216C311.089 20.472 311.477 19.828 311.981 19.284C312.493 18.732 313.113 18.296 313.841 17.976C314.577 17.656 315.405 17.496 316.325 17.496C317.101 17.496 317.817 17.62 318.473 17.868C319.129 18.116 319.693 18.48 320.165 18.96C320.637 19.432 321.005 20.016 321.269 20.712C321.541 21.4 321.677 22.188 321.677 23.076C321.677 23.524 321.629 23.828 321.533 23.988C321.437 24.14 321.253 24.216 320.981 24.216H313.361Z" fill="black"/>
</svg>
